<svg xmlns="http://www.w3.org/2000/svg" width="258" height="258" viewBox="0 0 258 258"><g transform="translate(-1674 -824)"><rect width="258" height="258" transform="translate(1674 824)" fill="none"/><g transform="translate(-1188 -62)"><path d="M445.15,88.547a11.617,11.617,0,0,0-9.69-10.673,47.057,47.057,0,0,0-23.588,2.182,11.794,11.794,0,0,0-7.862,11.794c.511,7.469.963,15.076,1.337,22.742A12.776,12.776,0,0,0,418.1,126.759h18.143a10.791,10.791,0,0,0,10.791-11.479C446.545,106.513,445.877,97.53,445.15,88.547Z" transform="translate(2559.816 988.639)"/><path d="M601.213,107.912c-23.45-2.143-42.025,6.86-57.18,14.211-15.568,7.548-24.138,11.3-33.809,7.371-19.656-8.02-37.347-5.405-57.4,4.324-13.661,6.644-28.364,16.61-45.386,28.777,2.143-5.111,4.3-10.143,6.428-15.057,2.614-1.966,5.189-3.813,7.666-5.582,12.226-8.649,17.3-12.895,28.462-19.027a76.818,76.818,0,0,1,33.121-9.828,50.871,50.871,0,0,1,20.737,4.089c16.845,6.211,30.742-3.931,47.175-12.619,12.737-6.742,27.519-14.9,45.642-13.071a211.212,211.212,0,0,0-8.59-20.089c-21.17.295-35.912,11.479-50.654,19.145-14.172,7.371-20.266,14.211-37.76,8.079-19.479-6.86-36.148-3.361-55.038,7.548-3.794,2.162-7.646,4.619-11.637,7.332-1.966,1.3-3.813,2.634-5.74,4.049,3.224-7.135,6.29-13.759,9.042-19.656,3.931-2.437,7.41-4.56,10.693-6.31,12.207-6.506,22.7-9.828,31.9-9.356a56.81,56.81,0,0,1,5.9.688h0c8.275,1.415,14.054,4.324,17.691,5.032,14.526,2.87,25.651-8.079,40.2-16.669C554.47,64.275,567.64,56.216,581.4,55.823a100.842,100.842,0,0,1-5.012-19.44c-20.56,2.084-36.757,14.9-51.224,23.587S507.216,74.32,488.7,67.5a53.841,53.841,0,0,0-6.211-1.848l-1.966-15.1c7.627,1.966,14.369,4.069,20.364,3.656,12.266-.806,24.236-11.519,35.892-19.224,12.757-8.413,23.8-15.725,37.937-15.135l.236-6.093c0-4.187.177-8.649.511-13.5V.019c-29.111-1.12-45.8,22.212-65.279,32.256a35.381,35.381,0,0,1-28.6,2.457c-1.12-.413-2.241-.786-3.322-1.12A59.146,59.146,0,0,0,460.67,31a54.821,54.821,0,0,0-49.337,30.821c-1.14,2.3-29.209,62.35-38.074,82.556-6.034,13.759-12.049,27.912-17.966,42.1A10.831,10.831,0,0,0,358.1,198.7a11.2,11.2,0,0,0,7.509,2.713h7.863a38.388,38.388,0,0,0,22.546-6.722c13.366-10.025,16.9-12.56,27.519-20.5a310.569,310.569,0,0,1,29.209-20.207c17.691-10.28,32.492-13.543,50.143-6.349,35.381,14.369,59.48-26.811,101.328-19.656h0a162.925,162.925,0,0,0-3.008-20.069Z" transform="translate(2512 914.02)"/></g></g></svg>